<?xml version="1.0" standalone="no"?>
<!DOCTYPE svg PUBLIC "-//W3C//DTD SVG 20010904//EN"
 "http://www.w3.org/TR/2001/REC-SVG-20010904/DTD/svg10.dtd">
<svg version="1.0" xmlns="http://www.w3.org/2000/svg"
 width="1080.000000pt" height="1080.000000pt" viewBox="0 0 1080.000000 1080.000000"
 preserveAspectRatio="xMidYMid meet">

<g transform="translate(0.000000,1080.000000) scale(0.100000,-0.100000)"
fill="#000000" stroke="none">
<path d="M1380 7320 c0 -154 4 -260 9 -260 5 0 72 -12 148 -26 76 -14 176 -32
223 -40 128 -22 157 -32 196 -66 75 -66 68 91 74 -1700 3 -883 2 -1604 -1
-1602 -10 6 -21 -45 -13 -58 4 -6 3 -8 -3 -5 -5 3 -22 -8 -37 -24 -52 -55 -56
-56 -431 -125 -44 -8 -99 -17 -122 -20 l-43 -7 0 -258 0 -259 970 0 970 0 -2
257 -3 257 -85 17 c-47 9 -152 28 -235 43 -82 15 -165 32 -183 38 -46 14 -101
65 -123 113 -18 38 -19 98 -19 1158 0 614 2 1117 5 1117 2 0 26 -23 52 -52 26
-28 55 -59 63 -68 13 -14 325 -359 425 -470 22 -24 67 -74 101 -110 33 -36
188 -207 344 -380 156 -173 291 -322 299 -331 23 -23 77 -82 241 -264 209
-233 222 -245 233 -238 6 3 7 1 3 -5 -5 -8 63 -97 93 -122 4 -3 134 -147 291
-320 156 -173 307 -340 335 -370 29 -30 94 -101 146 -158 l94 -103 597 -2 598
-2 2 1986 3 1986 28 40 c32 46 86 79 145 89 23 3 40 9 38 13 -2 3 22 7 53 8
31 2 57 7 59 13 2 6 8 8 13 4 14 -8 100 7 93 17 -3 5 1 6 9 4 7 -3 53 1 101
10 49 8 93 15 97 15 5 0 9 117 9 260 l0 260 -970 0 -970 0 0 -260 c0 -143 4
-260 8 -260 4 0 116 -20 249 -44 316 -58 340 -71 382 -201 21 -63 21 -80 21
-1139 0 -706 -4 -1077 -10 -1081 -6 -4 -23 8 -38 26 -102 123 -296 328 -305
322 -5 -3 -7 -2 -4 4 5 8 -191 232 -488 558 -41 44 -82 90 -92 101 -17 20
-106 118 -239 263 -28 31 -138 153 -245 271 -209 232 -420 465 -814 900 -137
151 -304 335 -369 408 l-120 132 -928 0 -928 0 0 -260z"/>
</g>
</svg>
